<svg width="249" height="270" viewBox="0 0 249 270" fill="none" xmlns="http://www.w3.org/2000/svg">
<path d="M23 94C23 66.3858 45.3858 44 73 44H123V94C123 121.614 100.614 144 73 144V144C45.3858 144 23 121.614 23 94V94Z" fill="#8CE7FF"/>
<path d="M24 94C24 66.3858 46.3858 44 74 44H124V94C124 121.614 101.614 144 74 144V144C46.3858 144 24 121.614 24 94V94Z" fill="#00DAFF"/>
<path d="M148 50C148 22.3858 170.386 0 198 0H248V50C248 77.6142 225.614 100 198 100V100C170.386 100 148 77.6142 148 50V50Z" fill="#8CE7FF"/>
<path d="M149 50C149 22.3858 171.386 0 199 0H249V50C249 77.6142 226.614 100 199 100V100C171.386 100 149 77.6142 149 50V50Z" fill="#00DAFF"/>
<path d="M126 176C126 148.386 148.386 126 176 126H226V176C226 203.614 203.614 226 176 226V226C148.386 226 126 203.614 126 176V176Z" fill="#8CE7FF"/>
<path d="M127 176C127 148.386 149.386 126 177 126H227V176C227 203.614 204.614 226 177 226V226C149.386 226 127 203.614 127 176V176Z" fill="#00DAFF"/>
<path d="M0 220C0 192.386 22.3858 170 50 170H100V220C100 247.614 77.6142 270 50 270V270C22.3858 270 0 247.614 0 220V220Z" fill="#8CE7FF"/>
<path d="M1 220C1 192.386 23.3858 170 51 170H101V220C101 247.614 78.6142 270 51 270V270C23.3858 270 1 247.614 1 220V220Z" fill="#00DAFF"/>
</svg>
