<svg width="261" height="133" viewBox="0 0 261 133" fill="none" xmlns="http://www.w3.org/2000/svg">
<rect x="194" y="23" width="45" height="5" rx="2.5" fill="#90CF56"/>
<rect x="165" y="4" width="74" height="5" rx="2.5" fill="#90CF56"/>
<rect x="38" y="1" width="120" height="5" rx="2.5" fill="#90CF56"/>
<rect x="66" y="32" width="120" height="5" rx="2.5" fill="#90CF56"/>
<rect x="47" y="18" width="54" height="5" rx="2.5" fill="#90CF56"/>
<rect x="112" y="15" width="81" height="5" rx="2.5" fill="#90CF56"/>
<rect x="156" y="71" width="45" height="5" rx="2.5" fill="#90CF56"/>
<rect x="127" y="52" width="74" height="5" rx="2.5" fill="#90CF56"/>
<rect y="49" width="120" height="5" rx="2.5" fill="#90CF56"/>
<rect x="28" y="80" width="120" height="5" rx="2.5" fill="#90CF56"/>
<rect x="9" y="66" width="54" height="5" rx="2.5" fill="#90CF56"/>
<rect x="74" y="63" width="81" height="5" rx="2.5" fill="#90CF56"/>
<rect x="211" y="119" width="45" height="5" rx="2.5" fill="#90CF56"/>
<rect x="182" y="100" width="74" height="5" rx="2.5" fill="#90CF56"/>
<rect x="9" y="106" width="62" height="5" rx="2.5" fill="#90CF56"/>
<rect y="30" width="53" height="5" rx="2.5" fill="#90CF56"/>
<rect x="186" y="81" width="74" height="5" rx="2.5" fill="#90CF56"/>
<rect x="208" y="43" width="29" height="5" rx="2.5" fill="#90CF56"/>
<rect x="55" y="97" width="120" height="5" rx="2.5" fill="#90CF56"/>
<rect x="83" y="128" width="120" height="5" rx="2.5" fill="#90CF56"/>
<rect x="64" y="114" width="54" height="5" rx="2.5" fill="#90CF56"/>
<rect x="129" y="111" width="81" height="5" rx="2.5" fill="#90CF56"/>
<rect x="195" y="22" width="45" height="5" rx="2.5" fill="#FE99A9"/>
<rect x="166" y="3" width="74" height="5" rx="2.5" fill="#FE99A9"/>
<rect x="39" width="120" height="5" rx="2.5" fill="#FE99A9"/>
<rect x="67" y="31" width="120" height="5" rx="2.5" fill="#FE99A9"/>
<rect x="48" y="17" width="54" height="5" rx="2.5" fill="#FE99A9"/>
<rect x="113" y="14" width="81" height="5" rx="2.5" fill="#FE99A9"/>
<rect x="157" y="70" width="45" height="5" rx="2.5" fill="#FE99A9"/>
<rect x="128" y="51" width="74" height="5" rx="2.5" fill="#FE99A9"/>
<rect x="1" y="48" width="120" height="5" rx="2.5" fill="#FE99A9"/>
<rect x="29" y="79" width="120" height="5" rx="2.5" fill="#FE99A9"/>
<rect x="10" y="65" width="54" height="5" rx="2.5" fill="#FE99A9"/>
<rect x="75" y="62" width="81" height="5" rx="2.5" fill="#FE99A9"/>
<rect x="212" y="118" width="45" height="5" rx="2.5" fill="#FE99A9"/>
<rect x="183" y="99" width="74" height="5" rx="2.5" fill="#FE99A9"/>
<rect x="10" y="105" width="62" height="5" rx="2.5" fill="#FE99A9"/>
<rect x="1" y="29" width="53" height="5" rx="2.5" fill="#FE99A9"/>
<rect x="187" y="80" width="74" height="5" rx="2.5" fill="#FE99A9"/>
<rect x="209" y="42" width="29" height="5" rx="2.5" fill="#FE99A9"/>
<rect x="56" y="96" width="120" height="5" rx="2.5" fill="#FE99A9"/>
<rect x="84" y="127" width="120" height="5" rx="2.5" fill="#FE99A9"/>
<rect x="65" y="113" width="54" height="5" rx="2.5" fill="#FE99A9"/>
<rect x="130" y="110" width="81" height="5" rx="2.5" fill="#FE99A9"/>
</svg>
