<svg width="229" height="227" viewBox="0 0 229 227" fill="none" xmlns="http://www.w3.org/2000/svg">
<rect x="65" y="20" width="6" height="100" rx="3" fill="#E5A6A6"/>
<rect x="18" y="73" width="6" height="100" rx="3" transform="rotate(-90 18 73)" fill="#E5A6A6"/>
<rect x="66.7856" y="83" width="6" height="40" rx="3" transform="rotate(33 66.7856 83)" fill="#E5A6A6"/>
<rect x="63.4464" y="86.2678" width="6" height="40" rx="3" transform="rotate(-33 63.4464 86.2678)" fill="#E5A6A6"/>
<rect x="81" y="70.4784" width="6" height="40" rx="3" transform="rotate(-57 81 70.4784)" fill="#E5A6A6"/>
<rect x="84.2678" y="73.8175" width="6" height="40" rx="3" transform="rotate(-123 84.2678 73.8175)" fill="#E5A6A6"/>
<rect x="68.4784" y="56.8147" width="6" height="40" rx="3" transform="rotate(-147 68.4784 56.8147)" fill="#E5A6A6"/>
<rect x="71.8176" y="53.5469" width="6" height="40" rx="3" transform="rotate(147 71.8176 53.5469)" fill="#E5A6A6"/>
<rect x="54.8147" y="68.7855" width="6" height="40" rx="3" transform="rotate(123 54.8147 68.7855)" fill="#E5A6A6"/>
<rect x="51.5469" y="65.4464" width="6" height="40" rx="3" transform="rotate(57 51.5469 65.4464)" fill="#E5A6A6"/>
<rect x="65" y="19" width="6" height="100" rx="3" fill="black"/>
<rect x="18" y="72" width="6" height="100" rx="3" transform="rotate(-90 18 72)" fill="black"/>
<rect x="66.7856" y="82" width="6" height="40" rx="3" transform="rotate(33 66.7856 82)" fill="black"/>
<rect x="63.4464" y="85.2678" width="6" height="40" rx="3" transform="rotate(-33 63.4464 85.2678)" fill="black"/>
<rect x="81" y="69.4784" width="6" height="40" rx="3" transform="rotate(-57 81 69.4784)" fill="black"/>
<rect x="84.2678" y="72.8175" width="6" height="40" rx="3" transform="rotate(-123 84.2678 72.8175)" fill="black"/>
<rect x="68.4784" y="55.8147" width="6" height="40" rx="3" transform="rotate(-147 68.4784 55.8147)" fill="black"/>
<rect x="71.8176" y="52.5469" width="6" height="40" rx="3" transform="rotate(147 71.8176 52.5469)" fill="black"/>
<rect x="54.8147" y="67.7855" width="6" height="40" rx="3" transform="rotate(123 54.8147 67.7855)" fill="black"/>
<rect x="51.5469" y="64.4464" width="6" height="40" rx="3" transform="rotate(57 51.5469 64.4464)" fill="black"/>
<rect x="176" y="1" width="6" height="100" rx="3" fill="#E5A6A6"/>
<rect x="129" y="54" width="6" height="100" rx="3" transform="rotate(-90 129 54)" fill="#E5A6A6"/>
<rect x="177.786" y="64" width="6" height="40" rx="3" transform="rotate(33 177.786 64)" fill="#E5A6A6"/>
<rect x="174.446" y="67.2678" width="6" height="40" rx="3" transform="rotate(-33 174.446 67.2678)" fill="#E5A6A6"/>
<rect x="192" y="51.4784" width="6" height="40" rx="3" transform="rotate(-57 192 51.4784)" fill="#E5A6A6"/>
<rect x="195.268" y="54.8175" width="6" height="40" rx="3" transform="rotate(-123 195.268 54.8175)" fill="#E5A6A6"/>
<rect x="179.478" y="37.8147" width="6" height="40" rx="3" transform="rotate(-147 179.478 37.8147)" fill="#E5A6A6"/>
<rect x="182.818" y="34.5469" width="6" height="40" rx="3" transform="rotate(147 182.818 34.5469)" fill="#E5A6A6"/>
<rect x="165.815" y="49.7855" width="6" height="40" rx="3" transform="rotate(123 165.815 49.7855)" fill="#E5A6A6"/>
<rect x="162.547" y="46.4464" width="6" height="40" rx="3" transform="rotate(57 162.547 46.4464)" fill="#E5A6A6"/>
<rect x="176" width="6" height="100" rx="3" fill="black"/>
<rect x="129" y="53" width="6" height="100" rx="3" transform="rotate(-90 129 53)" fill="black"/>
<rect x="177.786" y="63" width="6" height="40" rx="3" transform="rotate(33 177.786 63)" fill="black"/>
<rect x="174.446" y="66.2678" width="6" height="40" rx="3" transform="rotate(-33 174.446 66.2678)" fill="black"/>
<rect x="192" y="50.4784" width="6" height="40" rx="3" transform="rotate(-57 192 50.4784)" fill="black"/>
<rect x="195.268" y="53.8175" width="6" height="40" rx="3" transform="rotate(-123 195.268 53.8175)" fill="black"/>
<rect x="179.478" y="36.8147" width="6" height="40" rx="3" transform="rotate(-147 179.478 36.8147)" fill="black"/>
<rect x="182.818" y="33.5469" width="6" height="40" rx="3" transform="rotate(147 182.818 33.5469)" fill="black"/>
<rect x="165.815" y="48.7855" width="6" height="40" rx="3" transform="rotate(123 165.815 48.7855)" fill="black"/>
<rect x="162.547" y="45.4464" width="6" height="40" rx="3" transform="rotate(57 162.547 45.4464)" fill="black"/>
<rect x="156" y="108" width="6" height="100" rx="3" fill="#E5A6A6"/>
<rect x="109" y="161" width="6" height="100" rx="3" transform="rotate(-90 109 161)" fill="#E5A6A6"/>
<rect x="157.786" y="171" width="6" height="40" rx="3" transform="rotate(33 157.786 171)" fill="#E5A6A6"/>
<rect x="154.446" y="174.268" width="6" height="40" rx="3" transform="rotate(-33 154.446 174.268)" fill="#E5A6A6"/>
<rect x="172" y="158.478" width="6" height="40" rx="3" transform="rotate(-57 172 158.478)" fill="#E5A6A6"/>
<rect x="175.268" y="161.818" width="6" height="40" rx="3" transform="rotate(-123 175.268 161.818)" fill="#E5A6A6"/>
<rect x="159.478" y="144.815" width="6" height="40" rx="3" transform="rotate(-147 159.478 144.815)" fill="#E5A6A6"/>
<rect x="162.818" y="141.547" width="6" height="40" rx="3" transform="rotate(147 162.818 141.547)" fill="#E5A6A6"/>
<rect x="145.815" y="156.786" width="6" height="40" rx="3" transform="rotate(123 145.815 156.786)" fill="#E5A6A6"/>
<rect x="142.547" y="153.446" width="6" height="40" rx="3" transform="rotate(57 142.547 153.446)" fill="#E5A6A6"/>
<rect x="156" y="107" width="6" height="100" rx="3" fill="black"/>
<rect x="109" y="160" width="6" height="100" rx="3" transform="rotate(-90 109 160)" fill="black"/>
<rect x="157.786" y="170" width="6" height="40" rx="3" transform="rotate(33 157.786 170)" fill="black"/>
<rect x="154.446" y="173.268" width="6" height="40" rx="3" transform="rotate(-33 154.446 173.268)" fill="black"/>
<rect x="172" y="157.478" width="6" height="40" rx="3" transform="rotate(-57 172 157.478)" fill="black"/>
<rect x="175.268" y="160.818" width="6" height="40" rx="3" transform="rotate(-123 175.268 160.818)" fill="black"/>
<rect x="159.478" y="143.815" width="6" height="40" rx="3" transform="rotate(-147 159.478 143.815)" fill="black"/>
<rect x="162.818" y="140.547" width="6" height="40" rx="3" transform="rotate(147 162.818 140.547)" fill="black"/>
<rect x="145.815" y="155.786" width="6" height="40" rx="3" transform="rotate(123 145.815 155.786)" fill="black"/>
<rect x="142.547" y="152.446" width="6" height="40" rx="3" transform="rotate(57 142.547 152.446)" fill="black"/>
<rect x="47" y="127" width="6" height="100" rx="3" fill="#E6A6A6"/>
<rect y="180" width="6" height="100" rx="3" transform="rotate(-90 0 180)" fill="#E6A6A6"/>
<rect x="48.7856" y="190" width="6" height="40" rx="3" transform="rotate(33 48.7856 190)" fill="#E6A6A6"/>
<rect x="45.4464" y="193.268" width="6" height="40" rx="3" transform="rotate(-33 45.4464 193.268)" fill="#E6A6A6"/>
<rect x="63" y="177.478" width="6" height="40" rx="3" transform="rotate(-57 63 177.478)" fill="#E6A6A6"/>
<rect x="66.2678" y="180.818" width="6" height="40" rx="3" transform="rotate(-123 66.2678 180.818)" fill="#E6A6A6"/>
<rect x="50.4784" y="163.815" width="6" height="40" rx="3" transform="rotate(-147 50.4784 163.815)" fill="#E6A6A6"/>
<rect x="53.8176" y="160.547" width="6" height="40" rx="3" transform="rotate(147 53.8176 160.547)" fill="#E6A6A6"/>
<rect x="36.8147" y="175.786" width="6" height="40" rx="3" transform="rotate(123 36.8147 175.786)" fill="#E6A6A6"/>
<rect x="33.5469" y="172.446" width="6" height="40" rx="3" transform="rotate(57 33.5469 172.446)" fill="#E6A6A6"/>
<rect x="47" y="126" width="6" height="100" rx="3" fill="black"/>
<rect y="179" width="6" height="100" rx="3" transform="rotate(-90 0 179)" fill="black"/>
<rect x="48.7856" y="189" width="6" height="40" rx="3" transform="rotate(33 48.7856 189)" fill="black"/>
<rect x="45.4464" y="192.268" width="6" height="40" rx="3" transform="rotate(-33 45.4464 192.268)" fill="black"/>
<rect x="63" y="176.478" width="6" height="40" rx="3" transform="rotate(-57 63 176.478)" fill="black"/>
<rect x="66.2678" y="179.818" width="6" height="40" rx="3" transform="rotate(-123 66.2678 179.818)" fill="black"/>
<rect x="50.4784" y="162.815" width="6" height="40" rx="3" transform="rotate(-147 50.4784 162.815)" fill="black"/>
<rect x="53.8176" y="159.547" width="6" height="40" rx="3" transform="rotate(147 53.8176 159.547)" fill="black"/>
<rect x="36.8147" y="174.786" width="6" height="40" rx="3" transform="rotate(123 36.8147 174.786)" fill="black"/>
<rect x="33.5469" y="171.446" width="6" height="40" rx="3" transform="rotate(57 33.5469 171.446)" fill="black"/>
</svg>
